<svg width="17" height="17" viewBox="0 0 17 17" fill="none" xmlns="http://www.w3.org/2000/svg">
<path fill-rule="evenodd" clip-rule="evenodd" d="M7.50284 9.0759C7.50096 9.05084 7.5 9.02553 7.5 9V1C7.5 0.448 7.947 0 8.5 0C9.053 0 9.5 0.448 9.5 1V8.99982L11.9 7.2C12.342 6.867 12.969 6.958 13.3 7.4C13.632 7.842 13.542 8.469 13.1 8.8L9.1 11.8C8.923 11.933 8.711 12 8.5 12C8.299 12 8.098 11.939 7.925 11.818L3.925 9.004C3.473 8.686 3.364 8.062 3.682 7.611C4 7.159 4.623 7.05 5.075 7.368L7.50284 9.0759ZM2.5 14V15H14.5V14C14.5 13.45 14.95 13 15.5 13C16.05 13 16.5 13.45 16.5 14V16C16.5 16.55 16.05 17 15.5 17H1.5C0.95 17 0.5 16.55 0.5 16V14C0.5 13.45 0.95 13 1.5 13C2.05 13 2.5 13.45 2.5 14Z" fill="#47A1F8"/>
</svg>
